<svg id="Слой_1" data-name="Слой 1" xmlns="http://www.w3.org/2000/svg" viewBox="0 0 55.89 55.89"><defs><style>.cls-1{fill:#fff;}</style></defs><path d="M40,12A12,12,0,1,1,28,24,12,12,0,0,1,40,12m0-8A20,20,0,1,0,60,24,20,20,0,0,0,40,4Z" transform="translate(-4.11 -4)"/><path class="cls-1" d="M8.1,55.89h0L27.9,36.1,8.1,55.9Z" transform="translate(-4.11 -4)"/><path d="M27.9,32.11a4,4,0,0,0-2.83,1.16L5.27,53.07a4,4,0,0,0,0,5.66h0a4,4,0,0,0,5.66,0l19.8-19.8a4,4,0,0,0,0-5.66h0a4,4,0,0,0-2.83-1.16Z" transform="translate(-4.11 -4)"/></svg>